# xmcd CD database file
#
# Track frame offsets:
#	150
#	12457
#	25972
#	37505
#	46447
#	55085
#	68906
#	79250
#	93950
#	105765
#	116877
#	131028
#	136921
#	142211
#	153039
#	165350
#
# Disc length: 2320 seconds
#
# Revision: 2
# Processed by: cddbd v1.5.1PL2 Copyright (c) Steve Scherf et al.
# Submitted via: CDex 1.51
#
DISCID=c9090e10
DTITLE=George Jones - Things Have Gone To Pieces
DYEAR=1999
DGENRE=Country
TTITLE0=Things Have Gone To Pieces
TTITLE1=Open Pity Mind
TTITLE2=Mr. Favourite Lies
TTITLE3=Old Brush Arbor
TTITLE4=Jonesy
TTITLE5=It's Funny What A Fool Will Do
TTITLE6=Don't You Ever Get Tired Of (Hurting Me)
TTITLE7=He Stopped Loving Her Today
TTITLE8=Brothers Of A Bottle
TTITLE9=Least Of All
TTITLE10=I Always Get Lucky With You
TTITLE11=Chicken Reel
TTITLE12=Liberty
TTITLE13=She's My Rock
TTITLE14=Wedding Bells
TTITLE15=The World's Worst Lover
EXTD=YEAR: 1999
EXTT0=
EXTT1=
EXTT2=
EXTT3=
EXTT4=
EXTT5=
EXTT6=
EXTT7=
EXTT8=
EXTT9=
EXTT10=
EXTT11=
EXTT12=
EXTT13=
EXTT14=
EXTT15=
PLAYORDER=
